# xmcd
#
# Track frame offsets: 
#        150
#        20515
#        37500
#        51968
#        69346
#        88871
#        110374
#        126775
#        140219
#        158530
#        180941
#        198394
#        216582
#        234412
#        254099
#        266996
#        282204
#        298182
#        315592
#        329518
#
# Disc length: 4610 seconds
#
# Revision: 1
# Processed by: cddbd v1.5.2PL0 Copyright (c) Steve Scherf et al.
# Submitted via: ExactAudioCopy v0.95b4
#
DISCID=31120014
DTITLE=Laura Fygi - Song Book [CD2]
DYEAR=1900
DGENRE=Jazz
TTITLE0=Only You In My Heart (Chinese)
TTITLE1=Autumn Leaves
TTITLE2=Dream A Little Dream
TTITLE3=Disse Alguem - All Of Me (Portuguese)
TTITLE4=Puizas Puizas Puizas
TTITLE5=Noche De Ronda (Spanish)
TTITLE6=Bewitched
TTITLE7=Don't Make My Brown Eyes Blue
TTITLE8=For Me Formidable (French)
TTITLE9=Baby Come To Me
TTITLE10=Do It Again
TTITLE11=Et St. Demain (French with Michel Legrand)
TTITLE12=The Summer Knows
TTITLE13=Still
TTITLE14=The Moon Speaks For My Heart (Chinese)
TTITLE15=You Belong To My Heart
TTITLE16=Amor
TTITLE17=What a Difference A Day Makes
TTITLE18=La Puerta
TTITLE19=Dimentira
EXTD=
EXTT0=
EXTT1=
EXTT2=
EXTT3=
EXTT4=
EXTT5=
EXTT6=
EXTT7=
EXTT8=
EXTT9=
EXTT10=
EXTT11=
EXTT12=
EXTT13=
EXTT14=
EXTT15=
EXTT16=
EXTT17=
EXTT18=
EXTT19=
PLAYORDER=
